<?xml version="1.0" encoding="utf-8"?>
<!-- Generator: Adobe Illustrator 19.2.1, SVG Export Plug-In . SVG Version: 6.00 Build 0)  -->
<svg version="1.1" id="图层_1" xmlns="http://www.w3.org/2000/svg" xmlns:xlink="http://www.w3.org/1999/xlink" x="0px" y="0px"
	 viewBox="0 0 20 20" style="enable-background:new 0 0 20 20;" xml:space="preserve">
<style type="text/css">
	.st0{fill:#FFFFFF;}
</style>
<g>
	<title>age</title>
	<path class="st0" d="M20,8.8c0.1-1.8-4.3-2.5-4.5-2.7c-0.2-0.2,0.2-2.8-2.2-2.8S11.3,6,11.2,6.1C11.1,6.2,6.6,7,6.7,8.8
		c0.1,1.8,2.4,1.1,2.9,1.7c0.5,0.5-2,3.5-2.3,5.4c-0.1,0.6,0.1,0.8,0.7,0.8H11c0.4,0,0.6-0.2,0.8-0.6c0.5-0.8,1.1-2,1.4-2
		s0.9,1.2,1.4,2c0.2,0.3,0.4,0.6,0.8,0.6h3.1c0.6,0,0.8-0.1,0.7-0.8C19.1,14,16.6,11,17,10.5C17.4,10,19.9,10.6,20,8.8z"/>
	<path class="st0" d="M6.7,12.7c0-0.9-2.2-1.2-2.3-1.3C4.3,11.3,4.5,10,3.3,10s-1,1.3-1.1,1.4C2.2,11.4,0,11.8,0,12.7
		c0,0.9,1.2,0.6,1.4,0.8s-1,1.7-1.2,2.7c0,0.3,0,0.4,0.3,0.4h1.5c0.2,0,0.3-0.1,0.4-0.3c0.2-0.4,0.6-1,0.7-1s0.5,0.6,0.7,1
		c0.1,0.2,0.2,0.3,0.4,0.3H6c0.3,0,0.4-0.1,0.3-0.4c-0.1-1-1.4-2.5-1.2-2.7C5.4,13.3,6.6,13.6,6.7,12.7z"/>
</g>
</svg>
