<svg id="图层_1" data-name="图层 1" xmlns="http://www.w3.org/2000/svg" viewBox="0 0 25.81 17.2"><defs><style>.cls-1{fill:#fff;}</style></defs><title>age</title><path class="cls-1" d="M25.81,7.1c.1-2.37-5.57-3.22-5.81-3.49S20.28,0,17.2,0s-2.67,3.48-2.79,3.61S8.5,4.73,8.6,7.1s3.11,1.45,3.75,2.15-2.63,4.51-3,7c-.12.81.11,1,.9,1h4c.57,0,.77-.32,1.06-.77.65-1,1.43-2.58,1.85-2.58s1.2,1.59,1.85,2.58c.29.45.49.77,1.06.77h4c.79,0,1-.16.9-1-.36-2.48-3.55-6.38-3-7S25.71,9.46,25.81,7.1Z"/><path class="cls-1" d="M8.6,12.15c0-1.18-2.78-1.61-2.91-1.74S5.84,8.6,4.3,8.6,3,10.34,2.91,10.41,0,11,0,12.15s1.55.73,1.87,1.08S.56,15.48.38,16.72c-.06.4.06.48.45.48h2c.28,0,.38-.16.53-.39.32-.5.71-1.29.93-1.29s.6.8.93,1.29c.15.22.25.39.53.39h2c.39,0,.51-.08.45-.48-.18-1.24-1.77-3.19-1.49-3.5S8.55,13.33,8.6,12.15Z"/></svg>