<?xml version="1.0" standalone="no"?>
<!DOCTYPE svg PUBLIC "-//W3C//DTD SVG 20010904//EN"
 "http://www.w3.org/TR/2001/REC-SVG-20010904/DTD/svg10.dtd">
<svg version="1.0" xmlns="http://www.w3.org/2000/svg"
 width="512.000000pt" height="512.000000pt" viewBox="0 0 512.000000 512.000000"
 preserveAspectRatio="xMidYMid meet">
<metadata>
Created by potrace 1.15, written by Peter Selinger 2001-2017
</metadata>
<g transform="translate(0.000000,512.000000) scale(0.100000,-0.100000)"
fill="#000000" stroke="none">
<path d="M203 4958 c-174 -172 -196 -198 -191 -231 3 -19 32 5 192 163 103
102 192 193 197 203 8 14 5 17 -17 17 -21 0 -60 -33 -181 -152z"/>
<path d="M303 4858 c-140 -139 -264 -265 -275 -281 -10 -15 -18 -37 -16 -50 3
-18 49 23 292 263 158 157 292 293 297 303 8 14 5 17 -17 17 -22 0 -75 -47
-281 -252z"/>
<path d="M402 4758 c-194 -194 -362 -365 -373 -381 -11 -15 -19 -37 -17 -50 4
-18 67 40 392 363 213 212 392 393 397 403 8 14 5 17 -18 17 -22 0 -89 -62
-381 -352z"/>
<path d="M502 4658 c-249 -249 -462 -465 -473 -481 -11 -15 -19 -37 -17 -50 4
-18 84 57 492 463 268 267 492 493 497 503 8 14 5 17 -18 17 -22 0 -104 -76
-481 -452z"/>
<path d="M602 4558 c-304 -304 -562 -565 -573 -581 -11 -15 -19 -37 -17 -50 4
-18 101 75 592 563 323 322 592 593 597 603 8 14 5 17 -18 17 -23 0 -118 -91
-581 -552z"/>
<path d="M702 4458 c-359 -359 -662 -665 -673 -681 -11 -15 -19 -37 -17 -50 4
-18 118 92 692 663 378 377 692 693 697 703 8 14 5 17 -18 17 -23 0 -133 -106
-681 -652z"/>
<path d="M802 4358 c-414 -414 -762 -765 -773 -781 -11 -15 -19 -37 -17 -50 4
-18 136 109 792 763 433 432 792 793 797 803 8 14 5 17 -18 17 -23 0 -148
-120 -781 -752z"/>
<path d="M902 4258 c-469 -469 -862 -865 -873 -881 -11 -15 -19 -37 -17 -50 4
-18 62 36 368 338 200 198 347 340 328 315 -46 -59 -125 -178 -172 -260 -28
-48 -102 -129 -282 -311 -196 -198 -244 -251 -244 -272 0 -15 3 -27 7 -27 4 0
99 91 211 203 112 111 199 192 193 180 -6 -12 -25 -59 -42 -105 -30 -82 -32
-85 -200 -254 -133 -135 -169 -177 -169 -198 0 -14 3 -26 7 -26 3 0 72 65 153
145 l146 145 -21 -85 -22 -85 -131 -134 c-101 -103 -132 -140 -132 -160 0 -14
3 -26 7 -26 3 0 60 53 125 118 90 88 118 111 114 92 -3 -14 -8 -47 -11 -75 -7
-47 -13 -56 -121 -167 -86 -88 -114 -123 -114 -142 0 -14 3 -26 6 -26 4 0 53
46 110 102 l104 102 0 -64 0 -63 -110 -113 c-82 -84 -110 -119 -110 -138 0
-14 3 -26 6 -26 4 0 53 46 110 102 l104 102 0 -64 0 -63 -110 -113 c-82 -84
-110 -119 -110 -138 0 -14 3 -26 6 -26 4 0 55 48 114 106 l107 105 7 -32 c14
-72 11 -77 -114 -205 -92 -93 -120 -128 -120 -148 0 -38 16 -27 140 98 57 58
108 106 111 106 4 0 10 -23 14 -51 l7 -50 -136 -139 c-105 -106 -136 -144
-136 -164 0 -14 3 -26 7 -26 3 0 68 61 144 136 l138 137 14 -49 15 -49 -159
-161 c-125 -127 -159 -167 -159 -188 0 -22 3 -25 18 -17 9 5 84 78 167 160
l150 151 16 -47 17 -48 -184 -186 c-146 -148 -184 -192 -184 -213 0 -22 3 -25
18 -17 9 5 96 89 192 185 l175 176 22 -43 21 -42 -214 -216 c-171 -172 -214
-221 -214 -242 0 -15 3 -27 7 -27 4 0 105 97 224 216 l217 217 22 -43 22 -42
-246 -248 c-198 -198 -246 -252 -246 -273 0 -15 3 -27 7 -27 4 0 120 113 259
251 l251 251 22 -35 c11 -19 21 -38 21 -43 0 -4 -126 -135 -280 -289 -229
-230 -280 -286 -280 -309 0 -22 3 -25 18 -17 9 5 143 136 296 290 l280 280 23
-34 c13 -19 23 -37 23 -42 0 -4 -144 -152 -320 -328 -261 -262 -320 -326 -320
-348 0 -15 3 -27 7 -27 4 0 156 148 338 330 l330 330 29 -36 28 -36 -366 -367
c-300 -301 -366 -372 -366 -394 0 -15 3 -27 7 -27 4 0 176 169 383 375 l375
375 29 -36 28 -36 -411 -412 c-338 -339 -411 -417 -411 -439 0 -15 3 -27 7
-27 4 0 198 190 430 422 l423 423 31 -34 31 -34 -436 -436 c-240 -240 -436
-440 -436 -444 0 -4 12 -7 27 -7 22 0 103 75 455 427 l428 428 32 -33 33 -32
-388 -388 c-213 -213 -387 -391 -387 -395 0 -4 12 -7 27 -7 22 0 95 68 408
380 l381 380 34 -29 35 -30 -342 -343 c-189 -189 -343 -347 -343 -351 0 -4 12
-7 27 -7 22 0 89 62 364 336 l337 337 34 -23 c18 -13 35 -25 37 -27 3 -2 -131
-140 -297 -306 -166 -167 -302 -306 -302 -310 0 -4 12 -7 27 -7 22 0 82 55
323 296 l297 295 36 -21 c21 -12 37 -25 37 -29 0 -3 -113 -119 -251 -256 -137
-138 -255 -258 -260 -267 -8 -15 -5 -18 17 -18 22 0 76 48 288 259 l261 259
30 -19 c17 -10 35 -21 40 -23 6 -2 -92 -107 -217 -233 -126 -126 -228 -232
-228 -236 0 -4 12 -7 27 -7 21 0 71 45 252 225 l226 224 44 -20 45 -20 -197
-197 c-108 -109 -197 -201 -197 -205 0 -4 12 -7 26 -7 21 0 68 40 223 195
l197 195 47 -18 46 -18 -160 -159 c-88 -88 -165 -168 -170 -177 -8 -15 -5 -18
17 -18 21 0 63 35 198 168 l171 169 49 -15 48 -14 -146 -147 c-80 -81 -146
-151 -146 -154 0 -4 12 -7 26 -7 20 0 60 33 174 146 144 141 149 146 182 139
76 -15 78 -9 -56 -144 -69 -70 -126 -131 -126 -134 0 -4 12 -7 26 -7 20 0 57
30 158 129 l131 129 53 -5 c28 -3 52 -8 52 -12 0 -3 -45 -51 -101 -106 -120
-119 -131 -135 -93 -135 20 0 55 28 147 119 l122 119 58 -6 58 -5 -105 -107
c-58 -59 -106 -110 -106 -114 0 -3 12 -6 26 -6 19 0 55 28 143 115 l118 115
63 0 64 0 -107 -109 c-59 -59 -107 -111 -107 -115 0 -3 12 -6 26 -6 19 0 55
29 147 119 l122 118 70 7 70 7 -118 -119 c-64 -65 -117 -122 -117 -125 0 -4
12 -7 26 -7 20 0 58 31 163 134 135 133 136 133 200 145 34 7 70 15 80 18 9 3
-48 -59 -126 -139 -79 -79 -143 -148 -143 -151 0 -4 12 -7 26 -7 21 0 63 36
193 164 l166 165 99 35 100 36 -192 -193 c-106 -106 -192 -196 -192 -200 0 -4
12 -7 27 -7 21 0 72 46 257 228 201 199 241 235 311 272 44 23 112 63 150 87
64 41 43 17 -237 -264 -170 -170 -308 -312 -308 -316 0 -4 12 -7 27 -7 23 0
172 144 911 882 486 486 892 895 903 911 11 15 19 37 17 50 -4 18 -54 -27
-317 -288 -286 -284 -309 -304 -268 -240 24 39 64 106 87 150 37 70 73 110
272 311 182 185 228 236 228 257 0 15 -3 27 -7 27 -4 0 -94 -86 -200 -192
l-193 -192 36 100 35 99 165 166 c128 130 164 172 164 193 0 14 -3 26 -7 26
-3 0 -72 -64 -151 -143 -80 -78 -142 -135 -139 -126 3 10 11 46 18 80 12 64
12 65 145 200 103 105 134 143 134 163 0 14 -3 26 -7 26 -3 0 -60 -53 -125
-117 l-119 -118 7 70 7 70 118 122 c90 92 119 128 119 147 0 14 -3 26 -6 26
-4 0 -56 -48 -115 -107 l-109 -107 0 64 0 63 115 118 c87 88 115 124 115 143
0 14 -3 26 -6 26 -4 0 -55 -48 -114 -106 l-107 -105 -5 58 -6 58 119 122 c91
92 119 127 119 147 0 38 -16 27 -135 -93 -55 -56 -103 -101 -106 -101 -4 0 -9
24 -12 53 l-5 52 129 131 c99 101 129 138 129 158 0 14 -3 26 -7 26 -3 0 -64
-57 -134 -126 -135 -134 -129 -132 -144 -56 -7 33 -2 38 139 182 113 114 146
154 146 174 0 14 -3 26 -7 26 -3 0 -73 -66 -154 -146 l-147 -146 -14 48 -15
49 169 171 c133 135 168 177 168 198 0 22 -3 25 -17 17 -10 -5 -90 -82 -178
-170 l-159 -160 -18 46 -18 47 195 197 c155 155 195 202 195 223 0 14 -3 26
-7 26 -4 0 -96 -89 -205 -197 l-197 -197 -20 45 -20 44 224 226 c180 181 225
231 225 252 0 15 -3 27 -7 27 -4 0 -110 -102 -236 -227 -126 -126 -231 -223
-233 -218 -2 6 -13 24 -23 40 l-19 30 259 261 c211 212 259 266 259 288 0 22
-3 25 -17 17 -10 -5 -130 -123 -268 -260 -137 -138 -253 -251 -256 -251 -4 0
-17 16 -29 37 l-21 36 295 297 c241 241 296 301 296 323 0 15 -3 27 -7 27 -4
0 -143 -136 -310 -302 -166 -166 -304 -300 -306 -297 -2 2 -14 19 -27 37 l-23
34 337 337 c274 275 336 342 336 364 0 15 -3 27 -7 27 -4 0 -162 -154 -351
-342 l-343 -343 -30 35 -29 34 380 381 c312 313 380 386 380 408 0 15 -3 27
-7 27 -4 0 -182 -174 -395 -387 l-388 -388 -32 33 -33 32 428 428 c352 352
427 433 427 455 0 15 -3 27 -7 27 -4 0 -204 -196 -444 -436 l-436 -436 -34 31
-34 31 423 423 c232 232 422 426 422 430 0 4 -12 7 -27 7 -22 0 -100 -73 -439
-411 l-412 -411 -36 28 -36 29 375 375 c206 207 375 379 375 383 0 4 -12 7
-27 7 -22 0 -93 -66 -394 -366 l-367 -366 -36 28 -36 29 330 330 c182 182 330
334 330 338 0 4 -12 7 -27 7 -22 0 -86 -59 -348 -320 -176 -176 -324 -320
-328 -320 -5 0 -23 10 -42 23 l-34 23 280 280 c154 153 285 287 290 297 8 14
5 17 -17 17 -23 0 -79 -51 -309 -280 -154 -154 -285 -280 -289 -280 -5 0 -24
10 -43 21 l-35 22 251 251 c138 139 251 255 251 259 0 4 -12 7 -27 7 -21 0
-75 -48 -273 -246 l-248 -246 -42 22 -43 22 217 217 c119 119 216 220 216 224
0 4 -12 7 -27 7 -21 0 -70 -43 -242 -214 l-216 -214 -42 21 -43 22 176 175
c96 96 180 183 185 193 8 14 5 17 -17 17 -21 0 -65 -38 -213 -184 l-186 -184
-48 17 -47 16 151 150 c82 83 155 158 160 168 8 14 5 17 -17 17 -21 0 -61 -34
-188 -159 l-161 -159 -49 15 -49 14 137 138 c75 76 136 141 136 144 0 4 -12 7
-26 7 -20 0 -58 -31 -164 -136 l-139 -136 -50 7 c-28 4 -51 10 -51 14 0 3 48
54 106 111 125 124 136 140 98 140 -20 0 -55 -28 -148 -120 -128 -125 -133
-128 -205 -114 l-32 7 105 107 c58 59 106 110 106 114 0 3 -12 6 -26 6 -19 0
-54 -28 -138 -110 l-113 -110 -63 0 -64 0 102 104 c56 57 102 106 102 110 0 3
-12 6 -26 6 -19 0 -54 -28 -138 -110 l-113 -110 -63 0 -64 0 102 104 c56 57
102 106 102 110 0 3 -12 6 -26 6 -19 0 -54 -28 -142 -114 -111 -108 -120 -114
-167 -121 -27 -3 -61 -8 -75 -11 -19 -4 4 24 93 114 64 65 117 122 117 125 0
4 -12 7 -26 7 -20 0 -57 -31 -160 -132 l-134 -131 -85 -22 -85 -21 145 146
c80 81 145 150 145 153 0 4 -12 7 -26 7 -21 0 -63 -36 -198 -169 -169 -168
-172 -170 -254 -200 -46 -17 -93 -36 -105 -42 -12 -6 69 81 181 193 111 112
202 207 202 211 0 4 -12 7 -27 7 -21 0 -74 -48 -272 -244 -182 -180 -263 -254
-311 -282 -82 -47 -201 -126 -260 -172 -25 -19 116 127 313 324 196 198 357
363 357 367 0 4 -12 7 -27 7 -23 0 -168 -140 -881 -852z m683 -718 l-970 -970
-3 47 c-2 26 -1 56 2 67 3 12 412 427 908 924 l903 902 65 0 65 0 -970 -970z
m1128 961 c26 -6 -32 -65 -1032 -1065 l-1059 -1059 -7 58 -8 57 1009 1009
c1091 1091 1013 1020 1097 1000z m-1228 -861 c-472 -472 -860 -858 -861 -857
-1 1 3 35 10 75 l12 73 770 770 c423 423 779 772 792 775 12 4 46 10 75 14 28
4 54 8 57 9 3 0 -382 -386 -855 -859z m1408 841 c26 -6 22 -11 -135 -167 -158
-156 -165 -162 -212 -168 -97 -12 -166 -79 -173 -168 l-5 -53 -585 -586 -586
-587 -53 -4 c-91 -8 -159 -78 -171 -176 -5 -49 -9 -53 -168 -212 l-163 -163
-7 58 -8 57 1089 1089 c1177 1177 1093 1100 1177 1080z m173 -39 c10 -5 -41
-62 -169 -189 l-182 -182 -34 31 -34 30 164 165 164 164 39 -6 c22 -3 45 -9
52 -13z m-1681 -702 c-390 -390 -711 -707 -713 -705 -2 2 8 41 22 87 l25 83
599 598 598 598 75 24 c41 13 81 24 89 24 8 1 -304 -318 -695 -709z m1821 659
c28 -10 26 -12 -212 -250 l-239 -239 -6 57 -6 58 196 198 c209 210 198 203
267 176z m156 -67 c4 -4 -132 -147 -302 -317 l-310 -310 0 65 0 65 267 267
267 267 35 -15 c20 -8 39 -18 43 -22z m-1572 15 c0 -1 -230 -232 -510 -512
-462 -461 -509 -505 -490 -460 12 28 43 88 70 135 44 76 84 119 362 396 324
323 356 349 511 419 57 26 57 26 57 22z m1710 -86 c0 -4 -169 -175 -375 -381
l-375 -375 0 65 0 65 337 337 337 337 38 -21 c21 -12 38 -24 38 -27z m97 -52
l35 -22 -438 -439 -439 -438 -3 62 -3 62 398 398 c219 219 402 398 407 398 5
0 24 -10 43 -21z m-345 -602 l-497 -497 -3 62 -3 62 462 462 463 463 37 -27
38 -27 -497 -498z m573 433 l29 -31 -549 -549 -550 -550 -3 62 -3 62 518 518
c285 285 520 518 524 518 3 0 18 -14 34 -30z m-447 -707 c-426 -426 -589 -583
-605 -583 -20 0 -23 5 -23 42 l0 43 572 572 572 573 34 -32 33 -32 -583 -583z
m652 504 l24 -28 -529 -529 -530 -530 -65 0 -65 0 565 565 c310 310 567 561
570 557 3 -4 16 -20 30 -35z m-2147 -599 l-488 -488 -65 0 -65 0 550 550 550
550 3 -62 3 -62 -488 -488z m2232 496 l28 -36 -474 -474 -474 -474 -65 0 -65
0 510 510 c280 281 511 510 511 510 1 0 14 -16 29 -36z m-2132 -596 l-388
-388 -65 0 -65 0 450 450 450 450 3 -62 3 -62 -388 -388z m2216 475 l23 -36
-413 -413 -414 -414 -65 0 -65 0 450 450 c247 248 452 450 455 450 3 0 16 -17
29 -37z m75 -128 l20 -36 -350 -350 -349 -349 -65 0 -65 0 389 389 c215 215
392 388 395 386 3 -2 15 -20 25 -40z m-2191 -447 l-288 -288 -65 0 -65 0 350
350 350 350 3 -62 3 -62 -288 -288z m2257 313 l18 -38 -282 -282 -281 -281
-65 0 -65 0 325 325 c178 178 326 322 329 320 2 -3 12 -22 21 -44z m56 -137
l17 -46 -209 -209 -209 -209 -65 0 -65 0 255 255 c140 140 256 255 257 255 1
0 9 -21 19 -46z m-2213 -276 l-188 -188 -65 0 -65 0 250 250 250 250 3 -62 3
-62 -188 -188z m2262 119 l13 -44 -171 -171 -172 -171 -34 31 -34 30 189 189
c103 103 190 187 192 185 2 -2 9 -24 17 -49z m-2162 -219 l-88 -88 -65 0 -65
0 150 150 150 150 3 -62 3 -62 -88 -88z m2201 42 c6 -35 4 -38 -167 -208
l-172 -172 0 65 0 65 160 160 c170 170 164 167 179 90z m-1002 -1242 l-1027
-1026 -59 5 -58 6 1078 1078 1079 1079 7 -57 7 -58 -1027 -1027z m101 -100
l-928 -928 -65 0 -65 0 990 990 990 990 3 -62 3 -62 -928 -928z m-2561 898
l27 -32 -184 -184 -183 -183 -11 39 c-6 21 -11 46 -11 54 0 14 318 341 330
339 3 0 17 -15 32 -33z m146 -66 l47 0 -240 -240 c-132 -132 -242 -236 -246
-232 -4 4 -12 24 -19 46 l-12 38 198 199 c118 119 204 197 212 194 8 -3 35 -5
60 -5z m2852 7 c0 -1 -287 -289 -637 -640 l-638 -637 3 68 4 69 566 566 567
566 65 4 c36 2 66 4 68 5 1 1 2 1 2 -1z m474 -68 l-6 -64 -802 -803 c-440
-441 -808 -804 -816 -806 -8 -3 -42 -7 -75 -11 l-60 -6 880 880 c483 484 880
879 882 877 2 -1 0 -32 -3 -67z m-3084 58 c0 -1 -139 -141 -310 -312 l-309
-309 -20 44 -20 45 267 268 267 267 62 0 c35 0 63 -1 63 -3z m-170 -372 c-206
-206 -377 -375 -380 -375 -4 0 -16 17 -28 38 l-21 37 337 338 337 337 65 0 65
0 -375 -375z m135 -65 l-440 -440 -17 23 c-41 52 -54 36 368 458 l399 399 65
0 65 0 -440 -440z m141 -59 l-500 -500 -27 37 -28 37 462 463 462 462 65 0 65
0 -499 -499z m147 -53 l-553 -553 -32 33 -33 32 520 520 520 520 65 0 65 0
-552 -552z m707 530 c0 -17 -158 -181 -582 -605 l-582 -583 -34 32 -33 32 573
573 573 573 42 0 c38 0 43 -3 43 -22z m515 -108 l-130 -130 -3 62 -3 61 68 69
67 68 66 0 65 0 -130 -130z m100 -100 l-230 -230 -3 62 -3 62 168 168 168 168
65 0 65 0 -230 -230z m100 -100 l-330 -330 -3 62 -3 62 268 268 268 268 65 0
65 0 -330 -330z m100 -100 l-430 -430 -3 62 -3 62 368 368 368 368 65 0 65 0
-430 -430z m100 -100 l-530 -530 -3 62 -3 62 468 468 468 468 65 0 65 0 -530
-530z m-1443 -243 l-530 -530 -36 29 -36 29 563 563 562 562 3 -62 3 -62 -529
-529z m2599 451 l-21 -73 -637 -637 c-609 -609 -640 -639 -690 -653 -135 -40
-171 -81 622 714 407 408 741 737 743 731 2 -5 -6 -42 -17 -82z m-2544 -596
l-475 -475 -37 28 -36 28 508 509 508 508 3 -62 3 -62 -474 -474z m2449 329
c-19 -43 -42 -93 -51 -112 -22 -44 -777 -803 -830 -834 -22 -13 -78 -40 -125
-60 l-85 -36 560 561 c308 308 561 560 562 560 1 0 -13 -35 -31 -79z m-2389
-469 l-415 -415 -33 23 c-19 13 -36 25 -39 27 -2 2 198 206 445 454 l450 449
3 -62 3 -62 -414 -414z m66 -134 c-191 -191 -351 -348 -355 -348 -4 0 -23 10
-43 22 l-37 21 389 389 388 388 3 -62 3 -62 -348 -348z m65 -134 l-283 -282
-44 20 -44 20 324 324 324 324 3 -62 3 -62 -283 -282z m73 -128 l-209 -209
-47 18 -47 18 253 253 254 254 3 -62 3 -62 -210 -210z m261 120 l27 -32 -172
-171 -172 -171 -49 15 -49 15 189 189 c104 104 191 189 194 188 3 0 17 -15 32
-33z m25 -234 l-173 -173 -53 12 -54 11 162 162 162 162 65 0 64 -1 -173 -173z"/>
<path d="M4296 850 c-449 -448 -822 -823 -827 -832 -8 -15 -5 -18 18 -18 23 0
152 124 811 783 431 430 792 794 803 810 11 15 19 37 17 50 -4 18 -141 -114
-822 -793z"/>
<path d="M4396 750 c-394 -393 -722 -723 -727 -732 -8 -15 -5 -18 18 -18 23 0
137 110 711 683 376 375 692 694 703 710 11 15 19 37 17 50 -4 18 -124 -97
-722 -693z"/>
<path d="M4496 650 c-339 -338 -622 -623 -627 -632 -8 -15 -5 -18 18 -18 23 0
123 95 611 583 321 320 592 594 603 610 11 15 19 37 17 50 -4 18 -106 -80
-622 -593z"/>
<path d="M4596 550 c-284 -283 -522 -523 -527 -533 -8 -14 -5 -17 18 -17 23 0
108 81 511 483 266 265 492 494 503 510 11 15 19 37 17 50 -4 18 -89 -62 -522
-493z"/>
<path d="M4696 450 c-229 -228 -422 -423 -427 -432 -8 -15 -5 -18 18 -18 22 0
93 66 411 383 211 210 392 394 403 410 11 15 19 37 17 50 -4 18 -72 -45 -422
-393z"/>
<path d="M4796 350 c-174 -173 -322 -323 -327 -332 -8 -15 -5 -18 17 -18 23 0
80 52 312 282 156 156 293 295 303 311 11 15 19 37 17 50 -4 18 -54 -28 -322
-293z"/>
<path d="M4896 250 c-119 -118 -222 -223 -227 -232 -8 -15 -5 -18 17 -18 21 0
65 37 211 183 205 202 226 227 221 260 -3 19 -37 -11 -222 -193z"/>
<path d="M4996 150 c-136 -133 -149 -150 -111 -150 18 0 49 23 111 82 102 98
127 130 122 161 -3 19 -19 7 -122 -93z"/>
</g>
</svg>
