<?xml version="1.0" standalone="no"?>
<!DOCTYPE svg PUBLIC "-//W3C//DTD SVG 20010904//EN"
 "http://www.w3.org/TR/2001/REC-SVG-20010904/DTD/svg10.dtd">
<svg version="1.0" xmlns="http://www.w3.org/2000/svg"
 width="206.000000pt" height="206.000000pt" viewBox="0 0 206.000000 206.000000"
 preserveAspectRatio="xMidYMid meet">
<metadata>
Created by potrace 1.15, written by Peter Selinger 2001-2017
</metadata>
<g transform="translate(0.000000,206.000000) scale(0.100000,-0.100000)"
fill="#000000" stroke="none">
<path d="M776 1630 c-217 -215 -221 -220 -221 -261 0 -53 38 -89 92 -89 33 0
48 12 165 127 l128 127 0 -347 c0 -381 2 -393 58 -416 37 -15 74 -6 104 26
l23 25 0 358 0 359 131 -129 c120 -120 134 -130 168 -130 53 0 86 35 86 91 0
42 -3 46 -202 247 -112 112 -215 210 -230 218 -62 32 -67 29 -302 -206z"/>
<path d="M258 881 l-33 -29 0 -189 c0 -178 1 -190 23 -233 33 -63 66 -95 126
-122 l51 -23 610 0 c675 0 641 -3 719 65 71 63 80 93 84 284 5 208 1 231 -41
256 -44 27 -71 25 -109 -9 l-33 -29 -3 -174 c-3 -141 -6 -176 -19 -190 -15
-17 -56 -18 -600 -18 -570 0 -583 0 -603 20 -18 18 -20 33 -20 186 0 94 -4
174 -10 185 -12 22 -61 49 -89 49 -12 0 -35 -13 -53 -29z"/>
</g>
</svg>
