<svg id="图层_1" data-name="图层 1" xmlns="http://www.w3.org/2000/svg" viewBox="0 0 20.02 19.97"><defs><style>.cls-1{fill:#fff;}</style></defs><title>clock</title><path class="cls-1" d="M2.93,2.93A9.65,9.65,0,0,1,10,0a9.65,9.65,0,0,1,7.08,2.93A9.62,9.62,0,0,1,20,10,9.62,9.62,0,0,1,17.09,17,9.65,9.65,0,0,1,10,20,9.65,9.65,0,0,1,2.93,17,9.61,9.61,0,0,1,0,10,9.62,9.62,0,0,1,2.93,2.93ZM4.36,15.66A7.7,7.7,0,0,0,10,18a7.7,7.7,0,0,0,5.65-2.34A7.73,7.73,0,0,0,18,10a7.73,7.73,0,0,0-2.34-5.67A7.7,7.7,0,0,0,10,2,7.7,7.7,0,0,0,4.36,4.31,7.73,7.73,0,0,0,2,10,7.72,7.72,0,0,0,4.36,15.66ZM10.5,5v5.25L15,12.89l-.75,1.27L9,11V5Z"/></svg>