<svg id="图层_1" data-name="图层 1" xmlns="http://www.w3.org/2000/svg" viewBox="0 0 20.16 17.89"><defs><style>.cls-1{fill:#fff;}</style></defs><title>3</title><path class="cls-1" d="M14.38,3.55c0-1.18-2.78-1.61-2.91-1.74S11.61,0,10.08,0,8.74,1.74,8.68,1.81s-3,.56-2.91,1.74,1.55.73,1.87,1.08S6.34,6.88,6.16,8.12c-.06.4.06.48.45.48h2c.28,0,.38-.16.53-.39.32-.5.71-1.29.93-1.29s.6.8.93,1.29c.15.22.25.39.53.39h2c.39,0,.51-.08.45-.48-.18-1.24-1.77-3.19-1.49-3.5S14.33,4.73,14.38,3.55Z"/><path class="cls-1" d="M8.6,12.84c0-1.18-2.78-1.61-2.91-1.74S5.84,9.29,4.3,9.29,3,11,2.91,11.1,0,11.66,0,12.84s1.55.73,1.87,1.08S.56,16.17.38,17.41c-.06.4.06.48.45.48h2c.28,0,.38-.16.53-.39.32-.5.71-1.29.93-1.29s.6.8.93,1.29c.15.22.25.39.53.39h2c.39,0,.51-.08.45-.48-.18-1.24-1.77-3.19-1.49-3.5S8.55,14,8.6,12.84Z"/><path class="cls-1" d="M20.16,12.84c0-1.18-2.78-1.61-2.91-1.74s.14-1.81-1.39-1.81S14.52,11,14.46,11.1s-3,.56-2.91,1.74,1.55.73,1.87,1.08-1.31,2.26-1.49,3.5c-.06.4.06.48.45.48h2c.28,0,.38-.16.53-.39.32-.5.71-1.29.93-1.29s.6.8.93,1.29c.15.22.25.39.53.39h2c.39,0,.51-.08.45-.48-.18-1.24-1.77-3.19-1.49-3.5S20.11,14,20.16,12.84Z"/></svg>