<svg id="图层_1" data-name="图层 1" xmlns="http://www.w3.org/2000/svg" viewBox="0 0 20 19.99"><defs><style>.cls-1{fill:#fff;}</style></defs><title>weight</title><path class="cls-1" d="M16,6H4L0,20H20ZM8.87,15.31,7.42,12.8l-.73.94v1.57H5.57V9.72H6.69v2.43h0L8.56,9.72H9.8l-1.71,2.2,2,3.4Zm5.57-.57a2.64,2.64,0,0,1-1.82.67,2.61,2.61,0,0,1-2.68-2.88,2.68,2.68,0,0,1,2.68-2.93,2.36,2.36,0,0,1,1.73.72l-.6.71a1.47,1.47,0,0,0-1.1-.47c-.93,0-1.58.73-1.58,1.93s.56,2,1.66,2a1.13,1.13,0,0,0,.7-.21v-1.1h-1v-.92h2Z"/><path class="cls-1" d="M10,0a4,4,0,1,0,4,4A4,4,0,0,0,10,0Zm0,6a2,2,0,1,1,2-2A2,2,0,0,1,10,6Z"/></svg>